<svg width="40" height="40" fill="none" xmlns="http://www.w3.org/2000/svg"><path d="M37.008 9.25C31.025 0 18.808-2.75 9.335 3 .11 8.75-2.882 21.25 3.102 30.5l.499.75-1.995 7.5 7.48-2 .747.5C13.075 39 16.565 40 20.055 40c3.74 0 7.48-1 10.72-3C40 31 42.744 18.75 37.009 9.25ZM31.773 28.5c-.997 1.5-2.244 2.5-3.989 2.75-.997 0-2.244.5-7.23-1.5-4.238-2-7.729-5.25-10.222-9-1.496-1.75-2.244-4-2.493-6.25 0-2 .748-3.75 1.994-5 .5-.5.998-.75 1.496-.75h1.247c.498 0 .997 0 1.246 1 .5 1.25 1.746 4.25 1.746 4.5.249.25.249.75 0 1 .249.5 0 1-.25 1.25-.249.25-.498.75-.748 1-.498.25-.748.75-.498 1.25.997 1.5 2.244 3 3.49 4.25 1.496 1.25 2.992 2.25 4.737 3 .499.25.997.25 1.247-.25.249-.5 1.495-1.75 1.994-2.25.499-.5.748-.5 1.247-.25l3.989 2c.498.25.997.5 1.246.75.25.75.25 1.75-.249 2.5Z" fill="#03d4d9"/></svg>